<?xml version="1.0" encoding="UTF-8" standalone="no"?>
<!DOCTYPE svg PUBLIC "-//W3C//DTD SVG 1.1//EN" "http://www.w3.org/Graphics/SVG/1.1/DTD/svg11.dtd">
<svg width="100%" height="100%" viewBox="0 0 153 160" version="1.1" xmlns="http://www.w3.org/2000/svg" xmlns:xlink="http://www.w3.org/1999/xlink" xml:space="preserve" xmlns:serif="http://www.serif.com/" style="fill-rule:evenodd;clip-rule:evenodd;stroke-linejoin:round;stroke-miterlimit:2;">
    <g transform="matrix(1,0,0,1,-2053.29,-413.61)">
        <g id="FC-Isotipo" transform="matrix(0.283436,0,0,0.295347,1669.83,410.853)">
            <rect x="1352.89" y="9.336" width="539.107" height="539.107" style="fill:none;"/>
            <g transform="matrix(3.52814,0,0,3.38585,-5891.38,-1391.09)">
                <path d="M2118.79,489.047C2105.57,488.907 2101.88,480.615 2101.88,474.292C2101.88,465.86 2107.7,460.52 2116.66,460.52C2124.62,460.52 2130.3,465.298 2130.3,472.043C2130.3,474.432 2129.73,476.259 2128.74,478.086C2131.01,479.913 2133.57,480.756 2136.41,480.756C2140.82,480.756 2143.8,476.821 2143.8,470.778C2143.8,460.52 2132.01,452.931 2116.66,452.931C2100.74,452.931 2088.52,462.065 2088.52,474.151C2088.52,483.707 2093.49,489.75 2100.74,492.982C2087.95,497.198 2080.56,505.77 2080.56,520.104C2080.56,537.811 2096.19,549.335 2121.2,549.335C2145.22,549.335 2161.28,536.968 2161.28,514.202C2161.28,506.895 2159.43,499.728 2156.16,493.404C2170.8,493.123 2178.05,488.485 2178.05,479.491C2178.05,474.573 2174.92,471.34 2170.38,471.34C2167.82,471.34 2165.4,472.324 2163.55,474.151C2165.4,475.697 2166.54,477.945 2166.54,480.194C2166.54,484.972 2161.71,487.08 2151.33,487.08C2134.99,487.08 2126.18,491.717 2126.18,500.149C2126.18,505.349 2129.3,509.003 2133.85,509.003C2136.41,509.003 2138.83,508.019 2140.67,506.192C2138.83,504.646 2137.69,502.538 2137.69,500.149C2137.69,495.933 2141.38,493.966 2150.62,493.544C2153.46,499.306 2154.89,505.63 2154.89,512.235C2154.89,532.612 2140.82,541.746 2123.19,541.746C2104.58,541.746 2094.77,534.579 2094.77,519.402C2094.77,506.614 2104.15,498.041 2118.79,496.355L2118.79,489.047ZM2170.03,435.279C2177.37,435.279 2183.33,441.32 2183.33,448.761C2183.33,456.202 2177.37,462.243 2170.03,462.243C2162.68,462.243 2156.72,456.202 2156.72,448.761C2156.72,441.32 2162.68,435.279 2170.03,435.279Z" style="fill:rgb(26,23,27);"/>
            </g>
        </g>
    </g>
</svg>
