<?xml version="1.0" encoding="UTF-8" standalone="no"?>
<!DOCTYPE svg PUBLIC "-//W3C//DTD SVG 1.1//EN" "http://www.w3.org/Graphics/SVG/1.1/DTD/svg11.dtd">
<svg width="100%" height="100%" viewBox="0 0 531 139" version="1.1" xmlns="http://www.w3.org/2000/svg" xmlns:xlink="http://www.w3.org/1999/xlink" xml:space="preserve" xmlns:serif="http://www.serif.com/" style="fill-rule:evenodd;clip-rule:evenodd;stroke-linejoin:round;stroke-miterlimit:2;">
    <g transform="matrix(1,0,0,1,-1459.86,-413.61)">
        <g id="FC-Horizontal" transform="matrix(0.984758,0,0,0.25666,127.589,411.214)">
            <rect x="1352.89" y="9.336" width="539.107" height="539.107" style="fill:none;"/>
            <g transform="matrix(1.01548,0,0,3.89621,-129.564,-1602.17)">
                <path d="M1956.47,525.391C1956.47,527.017 1956.9,528.317 1957.78,529.238C1954.66,530.972 1953.23,532.164 1953.23,536.335C1953.23,540.724 1957.23,543.704 1965.78,543.704C1974.33,543.704 1978.27,540.724 1978.27,535.577C1978.27,531.73 1975.48,528.263 1967.7,528.263L1965.23,528.263C1962.44,528.209 1961.07,527.721 1960.96,525.933L1963.97,522.303L1964.8,522.303C1971.53,522.303 1975.64,518.619 1975.64,512.93C1975.64,510.113 1974.88,507.837 1973.45,506.212C1976.14,505.237 1977.62,503.449 1977.62,501.119C1977.62,499.385 1976.41,498.247 1974.66,498.247C1972.96,498.247 1971.86,499.006 1971.86,500.198C1972.85,500.686 1973.51,501.498 1973.51,502.311C1973.51,503.394 1972.74,504.153 1971.31,504.586C1969.62,503.665 1967.48,503.178 1964.8,503.178C1957.56,503.178 1953.95,506.591 1953.95,512.93C1953.95,517.589 1956.69,520.894 1961.34,521.978L1956.47,525.391ZM1966.33,530.972C1970.44,530.972 1972.9,532.272 1972.9,535.577C1972.9,539.532 1970.38,541.32 1965.78,541.32C1961.18,541.32 1958.6,539.478 1958.6,535.577C1958.6,533.681 1959.59,532.109 1961.29,530.972L1966.33,530.972ZM1513.16,478.041C1499.95,477.9 1496.25,469.609 1496.25,463.285C1496.25,454.853 1502.08,449.513 1511.03,449.513C1518.99,449.513 1524.68,454.291 1524.68,461.037C1524.68,463.426 1524.11,465.253 1523.11,467.08C1525.39,468.906 1527.94,469.75 1530.79,469.75C1535.19,469.75 1538.18,465.815 1538.18,459.772C1538.18,449.513 1526.38,441.925 1511.03,441.925C1495.12,441.925 1482.9,451.059 1482.9,463.145C1482.9,472.701 1487.87,478.744 1495.12,481.976C1482.33,486.192 1474.94,494.764 1474.94,509.098C1474.94,526.805 1490.57,538.328 1515.58,538.328C1539.6,538.328 1555.66,525.962 1555.66,503.196C1555.66,495.888 1553.81,488.721 1550.54,482.397C1565.18,482.116 1572.43,477.479 1572.43,468.485C1572.43,463.566 1569.3,460.334 1564.75,460.334C1562.19,460.334 1559.78,461.318 1557.93,463.145C1559.78,464.69 1560.91,466.939 1560.91,469.187C1560.91,473.965 1556.08,476.073 1545.71,476.073C1529.37,476.073 1520.56,480.711 1520.56,489.143C1520.56,494.342 1523.68,497.996 1528.23,497.996C1530.79,497.996 1533.2,497.012 1535.05,495.186C1533.2,493.64 1532.07,491.532 1532.07,489.143C1532.07,484.927 1535.76,482.959 1545,482.538C1547.84,488.3 1549.26,494.623 1549.26,501.228C1549.26,521.605 1535.19,530.74 1517.57,530.74C1498.95,530.74 1489.15,523.573 1489.15,508.395C1489.15,495.607 1498.53,487.035 1513.16,485.348L1513.16,478.041ZM1670.09,503.557L1676.77,503.557L1676.77,506.591L1670.03,506.591L1670.03,524.633C1670.03,527.125 1670.25,528.642 1672.77,528.642C1674.52,528.642 1675.62,527.992 1676.44,527.504L1677.59,529.238C1676.77,529.888 1674.91,531.405 1671.29,531.405C1666.25,531.405 1664.99,529.184 1664.99,524.199L1664.99,506.591L1660.17,506.591L1660.17,504.966C1664.17,503.611 1666.58,501.227 1667.73,497.868L1670.09,497.868L1670.09,503.557ZM1686.36,516.831L1702.25,516.831L1703.45,515.26C1703.23,507.837 1701.04,503.178 1692.99,503.178C1684.93,503.178 1680.93,508.65 1680.93,517.102C1680.93,525.933 1683.95,531.405 1693.21,531.405C1697.92,531.405 1700.55,529.455 1702.19,527.558L1700.33,525.716C1699.18,527.071 1697.15,528.913 1693.42,528.913C1686.96,528.913 1686.36,523.658 1686.36,517.698L1686.36,516.831ZM1626.04,530.972L1634.2,530.972L1634.42,528.967C1632.72,528.642 1631.02,527.938 1630.31,527.396L1630.31,511.088C1630.31,506.103 1626.58,503.178 1620.34,503.178C1614.42,503.178 1610.69,505.724 1610.69,509.733C1610.69,511.738 1612.06,513.093 1614.09,513.093C1616.28,513.093 1617.49,512.117 1617.49,510.329C1616.34,509.896 1615.68,509.137 1615.68,508.162C1615.68,506.483 1617.38,505.507 1620.34,505.507C1623.79,505.507 1625.27,507.187 1625.27,511.088L1625.27,515.856L1620.61,516.181C1613.71,516.668 1609.98,519.648 1609.98,524.687C1609.98,528.913 1612.72,531.405 1617.38,531.405C1620.39,531.405 1622.97,530.701 1625.43,528.371L1626.04,530.972ZM1747.72,530.972L1755.88,530.972L1756.1,528.967C1754.4,528.642 1752.71,527.938 1752,527.396L1752,511.088C1752,506.103 1748.27,503.178 1742.02,503.178C1736.11,503.178 1732.38,505.724 1732.38,509.733C1732.38,511.738 1733.75,513.093 1735.78,513.093C1737.97,513.093 1739.17,512.117 1739.17,510.329C1738.02,509.896 1737.37,509.137 1737.37,508.162C1737.37,506.483 1739.06,505.507 1742.02,505.507C1745.48,505.507 1746.95,507.187 1746.95,511.088L1746.95,515.856L1742.3,516.181C1735.39,516.668 1731.67,519.648 1731.67,524.687C1731.67,528.913 1734.41,531.405 1739.06,531.405C1742.08,531.405 1744.65,530.701 1747.12,528.371L1747.72,530.972ZM1822.56,530.972L1830.73,530.972L1830.94,528.967C1829.25,528.642 1827.55,527.938 1826.84,527.396L1826.84,511.088C1826.84,506.103 1823.11,503.178 1816.87,503.178C1810.95,503.178 1807.22,505.724 1807.22,509.733C1807.22,511.738 1808.59,513.093 1810.62,513.093C1812.81,513.093 1814.02,512.117 1814.02,510.329C1812.87,509.896 1812.21,509.137 1812.21,508.162C1812.21,506.483 1813.91,505.507 1816.87,505.507C1820.32,505.507 1821.8,507.187 1821.8,511.088L1821.8,515.856L1817.14,516.181C1810.24,516.668 1806.51,519.648 1806.51,524.687C1806.51,528.913 1809.25,531.405 1813.91,531.405C1816.92,531.405 1819.49,530.701 1821.96,528.371L1822.56,530.972ZM1858.78,516.831L1874.67,516.831L1875.87,515.26C1875.65,507.837 1873.46,503.178 1865.41,503.178C1857.35,503.178 1853.35,508.65 1853.35,517.102C1853.35,525.933 1856.37,531.405 1865.63,531.405C1870.34,531.405 1872.97,529.455 1874.61,527.558L1872.75,525.716C1871.6,527.071 1869.57,528.913 1865.85,528.913C1859.38,528.913 1858.78,523.658 1858.78,517.698L1858.78,516.831ZM1842.51,503.557L1849.19,503.557L1849.19,506.591L1842.45,506.591L1842.45,524.633C1842.45,527.125 1842.67,528.642 1845.19,528.642C1846.94,528.642 1848.04,527.992 1848.86,527.504L1850.01,529.238C1849.19,529.888 1847.33,531.405 1843.71,531.405C1838.67,531.405 1837.41,529.184 1837.41,524.199L1837.41,506.591L1832.59,506.591L1832.59,504.966C1836.59,503.611 1839,501.227 1840.15,497.868L1842.51,497.868L1842.51,503.557ZM1799.72,521.599C1797.41,527.992 1791.5,528.371 1789.91,528.371C1781.96,528.371 1778.95,523.82 1778.95,512.767C1778.95,501.715 1782.13,497.001 1789.96,497.001C1793.47,497.001 1796.05,498.247 1796.05,500.956C1796.05,501.823 1795.72,502.799 1794.95,503.882C1795.33,505.237 1796.7,506.158 1798.35,506.158C1800.1,506.158 1801.74,504.316 1801.74,501.607C1801.74,496.134 1795.28,494.021 1789.91,494.021C1778.73,494.021 1773.14,500.469 1773.14,512.767C1773.14,525.5 1778.24,531.351 1789.91,531.351C1791.5,531.351 1799.39,530.918 1802.45,522.574L1799.72,521.599ZM1919.98,530.972L1933.02,530.972L1933.24,528.967C1931.54,528.642 1930.11,528.1 1929.13,527.396L1929.13,510.871C1930.33,508 1933.07,505.995 1935.76,505.995C1939.1,505.995 1940.8,507.837 1940.8,511.792L1940.8,527.396C1939.7,528.209 1938.39,528.75 1936.91,528.967L1936.74,530.972L1949.73,530.972L1949.95,528.967C1948.25,528.642 1946.55,527.938 1945.84,527.396L1945.84,511.25C1945.84,506.158 1942.44,503.178 1936.74,503.178C1933.73,503.178 1930.83,504.803 1928.96,507.35L1928.41,503.72L1927.37,503.178C1925.13,503.828 1922.66,504.695 1920.14,505.128L1919.98,506.862C1922.99,506.97 1924.09,507.783 1924.09,510.709L1924.09,527.396C1922.88,528.263 1921.95,528.588 1920.2,528.859L1919.98,530.972ZM1879.71,530.972L1893.3,530.972L1893.51,528.967C1891.6,528.642 1889.95,528.1 1888.86,527.396L1888.86,514.122C1888.86,510.329 1891.65,506.374 1893.84,506.374C1894.99,506.374 1895.54,507.024 1895.54,508.162C1895.54,508.65 1895.21,509.517 1894.94,509.788C1895.27,510.925 1896.64,511.576 1897.95,511.576C1899.98,511.576 1901.08,509.733 1901.08,507.946C1901.08,504.695 1898.44,503.178 1895.82,503.178C1892.97,503.178 1890.39,505.345 1888.75,507.783L1888.14,503.72L1887.1,503.178C1884.86,503.828 1882.39,504.695 1879.87,505.128L1879.71,506.862C1882.72,506.97 1883.82,507.783 1883.82,510.709L1883.82,527.396C1882.61,528.263 1881.68,528.588 1879.93,528.859L1879.71,530.972ZM1593.93,530.972L1577.71,530.972L1578.04,528.805C1579.96,528.588 1582.42,527.992 1583.35,527.288L1583.35,498.031C1581.71,497.11 1579.63,496.73 1577.71,496.514L1577.99,494.347L1605.93,494.347L1606.42,503.124C1605.93,503.286 1605.38,503.394 1604.78,503.394C1604.5,503.394 1604.17,503.394 1603.9,503.34C1603.52,501.552 1602.69,499.277 1601.16,497.435L1588.56,497.435L1588.56,510.925L1597.05,510.329C1599.08,510.167 1600.01,507.783 1600.34,506.483L1602.2,506.483L1602.2,517.86L1600.34,517.86C1600.07,516.506 1599.52,513.797 1597,513.634L1588.56,513.038L1588.56,527.288C1590.04,528.209 1592.29,528.588 1594.2,528.805L1593.93,530.972ZM1636.99,530.972L1650.58,530.972L1650.8,528.967C1648.88,528.642 1647.24,528.1 1646.14,527.396L1646.14,514.122C1646.14,510.329 1648.94,506.374 1651.13,506.374C1652.28,506.374 1652.83,507.024 1652.83,508.162C1652.83,508.65 1652.5,509.517 1652.22,509.788C1652.55,510.925 1653.92,511.576 1655.24,511.576C1657.27,511.576 1658.36,509.733 1658.36,507.946C1658.36,504.695 1655.73,503.178 1653.1,503.178C1650.25,503.178 1647.68,505.345 1646.03,507.783L1645.43,503.72L1644.39,503.178C1642.14,503.828 1639.68,504.695 1637.16,505.128L1636.99,506.862C1640.01,506.97 1641.1,507.783 1641.1,510.709L1641.1,527.396C1639.9,528.263 1638.97,528.588 1637.21,528.859L1636.99,530.972ZM1903.82,530.972L1916.85,530.972L1917.07,528.967C1915.38,528.642 1913.95,528.1 1912.96,527.396L1912.96,503.611L1911.81,503.015C1909.4,503.72 1906.61,504.586 1903.98,505.02L1903.82,506.754C1906.83,506.862 1907.92,507.675 1907.92,510.6L1907.92,527.396C1906.72,528.263 1905.79,528.588 1904.03,528.859L1903.82,530.972ZM1707.29,530.972L1720.88,530.972L1721.09,528.967C1719.18,528.642 1717.53,528.1 1716.44,527.396L1716.44,514.122C1716.44,510.329 1719.23,506.374 1721.42,506.374C1722.57,506.374 1723.12,507.024 1723.12,508.162C1723.12,508.65 1722.79,509.517 1722.52,509.788C1722.85,510.925 1724.22,511.576 1725.53,511.576C1727.56,511.576 1728.65,509.733 1728.65,507.946C1728.65,504.695 1726.03,503.178 1723.39,503.178C1720.55,503.178 1717.97,505.345 1716.33,507.783L1715.72,503.72L1714.68,503.178C1712.44,503.828 1709.97,504.695 1707.45,505.128L1707.29,506.862C1710.3,506.97 1711.4,507.783 1711.4,510.709L1711.4,527.396C1710.19,528.263 1709.26,528.588 1707.51,528.859L1707.29,530.972ZM1821.8,525.608C1819.38,527.992 1817.58,528.967 1815.44,528.967C1812.98,528.967 1811.71,527.342 1811.71,524.199C1811.71,521.057 1813.85,518.944 1817.36,518.619L1821.8,518.24L1821.8,525.608ZM1625.27,525.608C1622.86,527.992 1621.05,528.967 1618.91,528.967C1616.45,528.967 1615.19,527.342 1615.19,524.199C1615.19,521.057 1617.32,518.944 1620.83,518.619L1625.27,518.24L1625.27,525.608ZM1746.95,525.608C1744.54,527.992 1742.74,528.967 1740.6,528.967C1738.13,528.967 1736.87,527.342 1736.87,524.199C1736.87,521.057 1739.01,518.944 1742.52,518.619L1746.95,518.24L1746.95,525.608ZM1964.8,519.919C1960.9,519.919 1959.32,517.806 1959.32,512.767C1959.32,507.675 1960.96,505.507 1964.8,505.507C1968.63,505.507 1970.27,507.675 1970.27,512.767C1970.27,517.806 1968.68,519.919 1964.8,519.919ZM1686.36,514.664C1686.47,509.408 1688.22,505.562 1692.77,505.562C1696.99,505.562 1698.14,508.433 1698.14,514.23C1698.14,514.23 1691.07,514.61 1686.36,514.664ZM1858.78,514.664C1858.89,509.408 1860.64,505.562 1865.19,505.562C1869.41,505.562 1870.56,508.433 1870.56,514.23C1870.56,514.23 1863.49,514.61 1858.78,514.664ZM1910.12,498.843C1912.2,498.843 1913.24,497.597 1913.24,495.43C1913.24,493.263 1912.2,492.071 1910.12,492.071C1908.03,492.071 1907.05,493.263 1907.05,495.43C1907.05,497.597 1908.03,498.843 1910.12,498.843ZM1564.4,424.273C1571.75,424.273 1577.71,430.314 1577.71,437.755C1577.71,445.196 1571.75,451.237 1564.4,451.237C1557.06,451.237 1551.1,445.196 1551.1,437.755C1551.1,430.314 1557.06,424.273 1564.4,424.273Z" style="fill:rgb(26,23,27);fill-rule:nonzero;"/>
            </g>
        </g>
    </g>
</svg>
