<?xml version="1.0" encoding="UTF-8" standalone="no"?>
<!DOCTYPE svg PUBLIC "-//W3C//DTD SVG 1.1//EN" "http://www.w3.org/Graphics/SVG/1.1/DTD/svg11.dtd">
<svg width="100%" height="100%" viewBox="0 0 342 197" version="1.1" xmlns="http://www.w3.org/2000/svg" xmlns:xlink="http://www.w3.org/1999/xlink" xml:space="preserve" xmlns:serif="http://www.serif.com/" style="fill-rule:evenodd;clip-rule:evenodd;stroke-linejoin:round;stroke-miterlimit:2;">
    <g transform="matrix(1,0,0,1,-1459.86,-180.936)">
        <g id="FC-Vertical" transform="matrix(0.632637,0,0,0.365177,603.97,177.527)">
            <rect x="1352.89" y="9.336" width="539.107" height="539.107" style="fill:none;"/>
            <g transform="matrix(1.58068,0,0,2.7384,-954.685,-486.14)">
                <path d="M1760.23,346.014C1760.23,347.64 1760.67,348.94 1761.54,349.861C1758.42,351.595 1757,352.787 1757,356.959C1757,361.347 1761,364.327 1769.54,364.327C1778.09,364.327 1782.03,361.347 1782.03,356.2C1782.03,352.353 1779.24,348.886 1771.46,348.886L1768.99,348.886C1766.2,348.832 1764.83,348.344 1764.72,346.556L1767.73,342.926L1768.56,342.926C1775.3,342.926 1779.4,339.242 1779.4,333.553C1779.4,330.736 1778.64,328.46 1777.21,326.835C1779.9,325.86 1781.38,324.072 1781.38,321.742C1781.38,320.008 1780.17,318.871 1778.42,318.871C1776.72,318.871 1775.62,319.629 1775.62,320.821C1776.61,321.309 1777.27,322.121 1777.27,322.934C1777.27,324.018 1776.5,324.776 1775.08,325.209C1773.38,324.288 1771.24,323.801 1768.56,323.801C1761.32,323.801 1757.71,327.214 1757.71,333.553C1757.71,338.213 1760.45,341.517 1765.1,342.601L1760.23,346.014ZM1770.09,351.595C1774.2,351.595 1776.66,352.895 1776.66,356.2C1776.66,360.155 1774.14,361.943 1769.54,361.943C1764.94,361.943 1762.37,360.101 1762.37,356.2C1762.37,354.304 1763.35,352.733 1765.05,351.595L1770.09,351.595ZM1626.32,351.595L1634.49,351.595L1634.71,349.59C1633.01,349.265 1631.31,348.561 1630.6,348.019L1630.6,331.711C1630.6,326.727 1626.87,323.801 1620.63,323.801C1614.71,323.801 1610.98,326.347 1610.98,330.357C1610.98,332.361 1612.35,333.716 1614.38,333.716C1616.57,333.716 1617.78,332.74 1617.78,330.952C1616.63,330.519 1615.97,329.761 1615.97,328.785C1615.97,327.106 1617.67,326.131 1620.63,326.131C1624.08,326.131 1625.56,327.81 1625.56,331.711L1625.56,336.479L1620.9,336.804C1614,337.291 1610.27,340.271 1610.27,345.31C1610.27,349.536 1613.01,352.028 1617.67,352.028C1620.68,352.028 1623.26,351.324 1625.72,348.994L1626.32,351.595ZM1662.54,337.454L1678.43,337.454L1679.63,335.883C1679.41,328.46 1677.22,323.801 1669.17,323.801C1661.12,323.801 1657.12,329.273 1657.12,337.725C1657.12,346.556 1660.13,352.028 1669.39,352.028C1674.1,352.028 1676.73,350.078 1678.37,348.181L1676.51,346.339C1675.36,347.694 1673.33,349.536 1669.61,349.536C1663.14,349.536 1662.54,344.281 1662.54,338.321L1662.54,337.454ZM1646.27,324.18L1652.95,324.18L1652.95,327.214L1646.21,327.214L1646.21,345.256C1646.21,347.748 1646.43,349.265 1648.95,349.265C1650.7,349.265 1651.8,348.615 1652.62,348.127L1653.77,349.861C1652.95,350.511 1651.09,352.028 1647.47,352.028C1642.43,352.028 1641.17,349.807 1641.17,344.822L1641.17,327.214L1636.35,327.214L1636.35,325.589C1640.35,324.234 1642.76,321.85 1643.91,318.491L1646.27,318.491L1646.27,324.18ZM1603.48,342.222C1601.18,348.615 1595.26,348.994 1593.67,348.994C1585.73,348.994 1582.71,344.443 1582.71,333.391C1582.71,322.338 1585.89,317.624 1593.73,317.624C1597.23,317.624 1599.81,318.871 1599.81,321.579C1599.81,322.446 1599.48,323.422 1598.71,324.505C1599.09,325.86 1600.46,326.781 1602.11,326.781C1603.86,326.781 1605.5,324.939 1605.5,322.23C1605.5,316.758 1599.04,314.645 1593.67,314.645C1582.49,314.645 1576.9,321.092 1576.9,333.391C1576.9,346.123 1582,351.974 1593.67,351.974C1595.26,351.974 1603.15,351.541 1606.22,343.197L1603.48,342.222ZM1723.74,351.595L1736.78,351.595L1737,349.59C1735.3,349.265 1733.87,348.723 1732.89,348.019L1732.89,331.494C1734.09,328.623 1736.83,326.618 1739.52,326.618C1742.86,326.618 1744.56,328.46 1744.56,332.415L1744.56,348.019C1743.46,348.832 1742.15,349.373 1740.67,349.59L1740.5,351.595L1753.49,351.595L1753.71,349.59C1752.01,349.265 1750.31,348.561 1749.6,348.019L1749.6,331.874C1749.6,326.781 1746.2,323.801 1740.5,323.801C1737.49,323.801 1734.59,325.426 1732.72,327.973L1732.18,324.343L1731.13,323.801C1728.89,324.451 1726.42,325.318 1723.9,325.751L1723.74,327.485C1726.75,327.593 1727.85,328.406 1727.85,331.332L1727.85,348.019C1726.64,348.886 1725.71,349.211 1723.96,349.482L1723.74,351.595ZM1683.47,351.595L1697.06,351.595L1697.28,349.59C1695.36,349.265 1693.71,348.723 1692.62,348.019L1692.62,334.745C1692.62,330.952 1695.41,326.997 1697.6,326.997C1698.76,326.997 1699.3,327.648 1699.3,328.785C1699.3,329.273 1698.97,330.14 1698.7,330.411C1699.03,331.548 1700.4,332.199 1701.71,332.199C1703.74,332.199 1704.84,330.357 1704.84,328.569C1704.84,325.318 1702.21,323.801 1699.58,323.801C1696.73,323.801 1694.15,325.968 1692.51,328.406L1691.91,324.343L1690.87,323.801C1688.62,324.451 1686.15,325.318 1683.63,325.751L1683.47,327.485C1686.48,327.593 1687.58,328.406 1687.58,331.332L1687.58,348.019C1686.37,348.886 1685.44,349.211 1683.69,349.482L1683.47,351.595ZM1707.58,351.595L1720.62,351.595L1720.84,349.59C1719.14,349.265 1717.71,348.723 1716.73,348.019L1716.73,324.234L1715.58,323.638C1713.16,324.343 1710.37,325.209 1707.74,325.643L1707.58,327.377C1710.59,327.485 1711.68,328.298 1711.68,331.223L1711.68,348.019C1710.48,348.886 1709.55,349.211 1707.8,349.482L1707.58,351.595ZM1625.56,346.231C1623.15,348.615 1621.34,349.59 1619.2,349.59C1616.74,349.59 1615.48,347.965 1615.48,344.822C1615.48,341.68 1617.61,339.567 1621.12,339.242L1625.56,338.863L1625.56,346.231ZM1768.56,340.542C1764.67,340.542 1763.08,338.429 1763.08,333.391C1763.08,328.298 1764.72,326.131 1768.56,326.131C1772.39,326.131 1774.04,328.298 1774.04,333.391C1774.04,338.429 1772.45,340.542 1768.56,340.542ZM1662.54,335.287C1662.65,330.031 1664.4,326.185 1668.95,326.185C1673.17,326.185 1674.32,329.056 1674.32,334.853C1674.32,334.853 1667.25,335.233 1662.54,335.287ZM1713.88,319.466C1715.96,319.466 1717,318.22 1717,316.053C1717,313.886 1715.96,312.694 1713.88,312.694C1711.8,312.694 1710.81,313.886 1710.81,316.053C1710.81,318.22 1711.8,319.466 1713.88,319.466ZM1512.09,246.548C1498.87,246.407 1495.17,238.116 1495.17,231.792C1495.17,223.361 1501,218.02 1509.95,218.02C1517.91,218.02 1523.6,222.798 1523.6,229.544C1523.6,231.933 1523.03,233.76 1522.03,235.587C1524.31,237.414 1526.86,238.257 1529.71,238.257C1534.11,238.257 1537.1,234.322 1537.1,228.279C1537.1,218.02 1525.3,210.432 1509.95,210.432C1494.04,210.432 1481.82,219.566 1481.82,231.652C1481.82,241.208 1486.79,247.251 1494.04,250.483C1481.25,254.699 1473.86,263.271 1473.86,277.605C1473.86,295.312 1489.49,306.835 1514.5,306.835C1538.52,306.835 1554.58,294.469 1554.58,271.703C1554.58,264.395 1552.73,257.228 1549.46,250.904C1564.1,250.623 1571.35,245.986 1571.35,236.992C1571.35,232.073 1568.22,228.841 1563.67,228.841C1561.11,228.841 1558.7,229.825 1556.85,231.652C1558.7,233.198 1559.83,235.446 1559.83,237.695C1559.83,242.473 1555,244.581 1544.63,244.581C1528.29,244.581 1519.47,249.218 1519.47,257.65C1519.47,262.85 1522.6,266.503 1527.15,266.503C1529.71,266.503 1532.12,265.52 1533.97,263.693C1532.12,262.147 1530.99,260.039 1530.99,257.65C1530.99,253.434 1534.68,251.467 1543.92,251.045C1546.76,256.807 1548.18,263.131 1548.18,269.735C1548.18,290.112 1534.11,299.247 1516.49,299.247C1497.87,299.247 1488.07,292.08 1488.07,276.903C1488.07,264.114 1497.45,255.542 1512.09,253.856L1512.09,246.548ZM1746.64,299.479L1754.8,299.479L1755.02,297.474C1753.33,297.149 1751.63,296.445 1750.91,295.903L1750.91,279.595C1750.91,274.611 1747.19,271.685 1740.94,271.685C1735.03,271.685 1731.3,274.231 1731.3,278.241C1731.3,280.245 1732.67,281.6 1734.7,281.6C1736.89,281.6 1738.09,280.624 1738.09,278.837C1736.94,278.403 1736.29,277.645 1736.29,276.669C1736.29,274.99 1737.98,274.015 1740.94,274.015C1744.39,274.015 1745.87,275.694 1745.87,279.595L1745.87,284.363L1741.22,284.688C1734.31,285.176 1730.59,288.155 1730.59,293.194C1730.59,297.42 1733.33,299.912 1737.98,299.912C1741,299.912 1743.57,299.208 1746.04,296.878L1746.64,299.479ZM1624.95,299.479L1633.12,299.479L1633.34,297.474C1631.64,297.149 1629.94,296.445 1629.23,295.903L1629.23,279.595C1629.23,274.611 1625.5,271.685 1619.26,271.685C1613.34,271.685 1609.61,274.231 1609.61,278.241C1609.61,280.245 1610.98,281.6 1613.01,281.6C1615.2,281.6 1616.41,280.624 1616.41,278.837C1615.26,278.403 1614.6,277.645 1614.6,276.669C1614.6,274.99 1616.3,274.015 1619.26,274.015C1622.71,274.015 1624.19,275.694 1624.19,279.595L1624.19,284.363L1619.53,284.688C1612.63,285.176 1608.9,288.155 1608.9,293.194C1608.9,297.42 1611.64,299.912 1616.3,299.912C1619.31,299.912 1621.89,299.208 1624.35,296.878L1624.95,299.479ZM1685.28,285.338L1701.17,285.338L1702.37,283.767C1702.15,276.344 1699.96,271.685 1691.91,271.685C1683.85,271.685 1679.85,277.157 1679.85,285.609C1679.85,294.44 1682.87,299.912 1692.12,299.912C1696.84,299.912 1699.47,297.962 1701.11,296.066L1699.25,294.223C1698.1,295.578 1696.07,297.42 1692.35,297.42C1685.88,297.42 1685.28,292.165 1685.28,286.205L1685.28,285.338ZM1669,272.064L1675.69,272.064L1675.69,275.098L1668.95,275.098L1668.95,293.14C1668.95,295.632 1669.17,297.149 1671.69,297.149C1673.44,297.149 1674.54,296.499 1675.36,296.011L1676.51,297.745C1675.69,298.395 1673.83,299.912 1670.21,299.912C1665.17,299.912 1663.91,297.691 1663.91,292.706L1663.91,275.098L1659.09,275.098L1659.09,273.473C1663.09,272.118 1665.5,269.735 1666.65,266.375L1669,266.375L1669,272.064ZM1706.21,299.479L1719.79,299.479L1720.01,297.474C1718.1,297.149 1716.45,296.607 1715.36,295.903L1715.36,282.629C1715.36,278.837 1718.15,274.881 1720.34,274.881C1721.49,274.881 1722.04,275.532 1722.04,276.669C1722.04,277.157 1721.71,278.024 1721.44,278.295C1721.77,279.433 1723.14,280.083 1724.45,280.083C1726.48,280.083 1727.57,278.241 1727.57,276.453C1727.57,273.202 1724.94,271.685 1722.31,271.685C1719.47,271.685 1716.89,273.852 1715.25,276.29L1714.64,272.227L1713.6,271.685C1711.36,272.335 1708.89,273.202 1706.37,273.635L1706.21,275.369C1709.22,275.477 1710.32,276.29 1710.32,279.216L1710.32,295.903C1709.11,296.77 1708.18,297.095 1706.42,297.366L1706.21,299.479ZM1635.91,299.479L1649.5,299.479L1649.72,297.474C1647.8,297.149 1646.16,296.607 1645.06,295.903L1645.06,282.629C1645.06,278.837 1647.86,274.881 1650.05,274.881C1651.2,274.881 1651.75,275.532 1651.75,276.669C1651.75,277.157 1651.42,278.024 1651.14,278.295C1651.47,279.433 1652.84,280.083 1654.16,280.083C1656.18,280.083 1657.28,278.241 1657.28,276.453C1657.28,273.202 1654.65,271.685 1652.02,271.685C1649.17,271.685 1646.6,273.852 1644.95,276.29L1644.35,272.227L1643.31,271.685C1641.06,272.335 1638.6,273.202 1636.08,273.635L1635.91,275.369C1638.92,275.477 1640.02,276.29 1640.02,279.216L1640.02,295.903C1638.82,296.77 1637.88,297.095 1636.13,297.366L1635.91,299.479ZM1592.85,299.479L1576.63,299.479L1576.96,297.312C1578.88,297.095 1581.34,296.499 1582.27,295.795L1582.27,266.538C1580.63,265.617 1578.55,265.238 1576.63,265.021L1576.9,262.854L1604.85,262.854L1605.34,271.631C1604.85,271.793 1604.3,271.902 1603.7,271.902C1603.42,271.902 1603.09,271.902 1602.82,271.847C1602.44,270.06 1601.61,267.785 1600.08,265.942L1587.48,265.942L1587.48,279.433L1595.97,278.837C1598,278.674 1598.93,276.29 1599.26,274.99L1601.12,274.99L1601.12,286.367L1599.26,286.367C1598.98,285.013 1598.44,282.304 1595.92,282.141L1587.48,281.546L1587.48,295.795C1588.96,296.716 1591.2,297.095 1593.12,297.312L1592.85,299.479ZM1745.87,294.115C1743.46,296.499 1741.65,297.474 1739.52,297.474C1737.05,297.474 1735.79,295.849 1735.79,292.706C1735.79,289.564 1737.93,287.451 1741.43,287.126L1745.87,286.747L1745.87,294.115ZM1624.19,294.115C1621.78,296.499 1619.97,297.474 1617.83,297.474C1615.37,297.474 1614.11,295.849 1614.11,292.706C1614.11,289.564 1616.24,287.451 1619.75,287.126L1624.19,286.747L1624.19,294.115ZM1685.28,283.171C1685.39,277.916 1687.14,274.069 1691.69,274.069C1695.91,274.069 1697.06,276.94 1697.06,282.737C1697.06,282.737 1689.99,283.117 1685.28,283.171ZM1563.32,192.78C1570.67,192.78 1576.63,198.821 1576.63,206.262C1576.63,213.703 1570.67,219.744 1563.32,219.744C1555.98,219.744 1550.02,213.703 1550.02,206.262C1550.02,198.821 1555.98,192.78 1563.32,192.78Z" style="fill:rgb(26,23,27);fill-rule:nonzero;"/>
            </g>
        </g>
    </g>
</svg>
